<svg width="35" height="30" viewBox="0 0 35 30" fill="none" xmlns="http://www.w3.org/2000/svg">
<g style="mix-blend-mode:luminosity">
<path d="M20.3988 14.9722C20.3988 13.3171 19.0149 11.9752 17.3077 11.9752C15.6007 11.9752 14.2167 13.3171 14.2167 14.9722C14.2167 16.6275 15.6007 17.9693 17.3077 17.9693C19.0149 17.9693 20.3988 16.6275 20.3988 14.9722Z" fill="#53C1DE"/>
<path fill-rule="evenodd" clip-rule="evenodd" d="M27.3466 9.40811C27.9993 6.83628 28.8198 2.06709 25.9274 0.450183C23.0484 -1.15967 19.302 1.92511 17.3237 3.77674C15.3512 1.94356 11.4996 -1.12804 8.60957 0.494006C5.73174 2.10926 6.6192 6.79938 7.28642 9.38735C4.6019 10.1266 0 11.7189 0 14.9722C0 18.2162 4.59711 19.9486 7.26575 20.6872C6.59605 23.2895 5.75303 27.9126 8.63454 29.5243C11.5353 31.146 15.375 28.1475 17.3716 26.2756C19.3626 28.1382 23.073 31.1563 25.9525 29.5401C28.8411 27.9188 28.0888 23.2135 27.4215 20.6106C30.0084 19.8704 34.6154 18.1757 34.6154 14.9722C34.6154 11.7502 29.9888 10.145 27.3466 9.40811ZM27.0187 19.2312C26.5806 17.8865 25.9892 16.4565 25.2659 14.9793C25.9563 13.537 26.5247 12.1255 26.9506 10.7895C28.8876 11.334 33.1367 12.5784 33.1367 14.9722C33.1367 17.3885 29.0592 18.6447 27.0187 19.2312ZM25.2115 28.2992C23.0631 29.505 19.8717 26.6188 18.4013 25.2472C19.3768 24.2128 20.3515 23.0102 21.3029 21.6749C22.9764 21.531 24.5573 21.2956 25.9911 20.9743C26.4607 22.8155 27.3695 27.088 25.2115 28.2992ZM9.37341 28.282C7.22473 27.0808 8.20682 22.9553 8.6995 21.0384C10.1173 21.3426 11.6868 21.5613 13.3643 21.6932C14.3219 22.9998 15.3249 24.2009 16.3357 25.2527C15.0869 26.424 11.5321 29.4888 9.37341 28.282ZM1.47864 14.9722C1.47864 12.5469 5.70239 11.3115 7.68351 10.7684C8.11674 12.1344 8.68494 13.5628 9.37065 15.0072C8.67606 16.473 8.09973 17.924 7.66252 19.3062C5.77349 18.7818 1.47864 17.399 1.47864 14.9722ZM9.35042 1.73485C11.5079 0.524029 14.8554 3.47288 16.2876 4.80015C15.282 5.84716 14.2882 7.03915 13.3388 8.33827C11.7108 8.48457 10.1524 8.7195 8.71972 9.03427C8.18221 6.94697 7.19529 2.94437 9.35042 1.73485ZM22.3607 9.89665C23.4652 10.0318 24.5234 10.2115 25.517 10.4315C25.2187 11.3585 24.8469 12.3278 24.409 13.3215C23.7743 12.1538 23.093 11.0095 22.3607 9.89665ZM17.3242 5.82473C18.0062 6.54112 18.6893 7.34111 19.3613 8.20904C17.9983 8.1465 16.633 8.14627 15.27 8.20811C15.9426 7.34824 16.6315 6.54944 17.3242 5.82473ZM10.219 13.3205C9.78841 12.3302 9.41998 11.3566 9.1191 10.4163C10.1067 10.2021 11.16 10.0269 12.2573 9.894C11.523 11.0045 10.8428 12.1483 10.219 13.3205ZM12.2888 20.1527C11.1553 20.0301 10.0861 19.8638 9.09872 19.6554C9.40435 18.6987 9.7809 17.704 10.2207 16.6925C10.8531 17.8769 11.5437 19.0318 12.2888 20.1527ZM17.3652 24.221C16.6643 23.4877 15.9652 22.6767 15.2825 21.8043C16.6532 21.8565 18.0267 21.8566 19.3973 21.7973C18.7232 22.6855 18.0426 23.4977 17.3652 24.221ZM24.4231 16.641C24.8858 17.6635 25.2758 18.6527 25.5856 19.5933C24.5819 19.8155 23.4983 19.9943 22.3566 20.1271C23.0942 18.9931 23.7864 17.8311 24.4231 16.641ZM20.4777 20.3009C18.3809 20.4462 16.2711 20.4445 14.1736 20.3128C12.9818 18.6248 11.9208 16.8496 11.005 15.0067C11.9165 13.1676 12.9697 11.3958 14.1558 9.71054C16.2548 9.55673 18.3667 9.55627 20.4657 9.71146C21.6417 11.3967 22.6933 13.1638 23.6258 14.9863C22.7043 16.8245 21.6456 18.5998 20.4777 20.3009ZM25.1888 1.69223C27.3468 2.89908 26.3863 7.1853 25.9148 9.04915C24.4787 8.72781 22.9192 8.48873 21.2865 8.34011C20.3353 7.02697 19.3498 5.8329 18.3605 4.79941C19.811 3.44355 23.0517 0.497179 25.1888 1.69223Z" fill="#53C1DE"/>
</g>
</svg>
