<svg width="50" height="50" viewBox="0 0 50 50" fill="none" xmlns="http://www.w3.org/2000/svg">
<rect width="50" height="50" fill="#393E46"/>
<path d="M10.6 40V35.16H17.76C19.5733 35.16 21.16 34.7867 22.52 34.04C23.88 33.2667 24.9333 32.1867 25.68 30.8C26.4533 29.4133 26.84 27.7733 26.84 25.88C26.84 24.04 26.4533 22.44 25.68 21.08C24.9067 19.6933 23.84 18.6267 22.48 17.88C21.12 17.1067 19.5467 16.72 17.76 16.72H10.48V11.88H17.84C19.92 11.88 21.84 12.2267 23.6 12.92C25.3867 13.6133 26.9333 14.6 28.24 15.88C29.5733 17.1333 30.6 18.6133 31.32 20.32C32.0667 22.0267 32.44 23.8933 32.44 25.92C32.44 27.9467 32.0667 29.8267 31.32 31.56C30.6 33.2667 29.5867 34.76 28.28 36.04C26.9733 37.2933 25.4267 38.2667 23.64 38.96C21.88 39.6533 19.9733 40 17.92 40H10.6ZM6.88 40V11.88H12.32V40H6.88Z" fill="#F7F7F7"/>
<path d="M39.8028 40.4C38.8428 40.4 38.0561 40.08 37.4428 39.44C36.8295 38.8 36.5228 38.0133 36.5228 37.08C36.5228 36.1467 36.8295 35.36 37.4428 34.72C38.0561 34.08 38.8428 33.76 39.8028 33.76C40.7361 33.76 41.5095 34.08 42.1228 34.72C42.7361 35.36 43.0428 36.1467 43.0428 37.08C43.0428 38.0133 42.7361 38.8 42.1228 39.44C41.5095 40.08 40.7361 40.4 39.8028 40.4Z" fill="#6D9886"/>
</svg>
