<svg width="25" height="27" viewBox="0 0 25 27" fill="none" xmlns="http://www.w3.org/2000/svg">
<path d="M8.92816 26V22.4454L8.9786 19.9193C9.0392 19.1335 9.36946 18.3928 9.91283 17.8194C9.92078 17.811 9.92879 17.8026 9.93685 17.7943C9.95782 17.7726 9.94401 17.7376 9.91283 17.734C6.28192 17.3139 2.49892 15.8926 2.49892 9.70485C2.47525 8.18085 3.0116 6.70344 4.00291 5.54465C4.03759 5.50413 4.07282 5.46397 4.10861 5.42424C4.15519 5.3725 4.17042 5.30239 4.14909 5.23797C4.14779 5.23407 4.1465 5.23015 4.14521 5.22624C4.12101 5.15264 4.0983 5.0787 4.07709 5.00446C3.71268 3.72881 3.79104 2.36615 4.3039 1.13636C4.30767 1.12728 4.31149 1.11821 4.31533 1.10914C4.33448 1.06388 4.37467 1.02928 4.42631 1.02074C4.74829 0.967514 6.04943 0.896306 8.54035 2.49092C8.61788 2.54054 8.69655 2.59179 8.77639 2.64469C8.83404 2.68289 8.90735 2.6946 8.97551 2.67661L8.98196 2.6749C9.11567 2.63967 9.24974 2.60624 9.38412 2.57458C11.7519 2.01703 14.2191 2.01703 16.5869 2.57458C16.7144 2.60458 16.8414 2.63621 16.9683 2.66943L16.9766 2.67161C17.0567 2.69267 17.1428 2.67892 17.2107 2.63407C17.285 2.58492 17.3583 2.53721 17.4307 2.49092C19.9157 0.899667 21.2097 0.967223 21.5332 1.0204C21.5857 1.02906 21.6268 1.06428 21.6466 1.11036C21.6491 1.11629 21.6515 1.12221 21.6541 1.12814C22.1756 2.35849 22.2584 3.7252 21.8938 5.00446C21.872 5.08071 21.8487 5.15667 21.8238 5.23226C21.8013 5.30025 21.8175 5.37419 21.8665 5.42882L21.8711 5.43396C21.904 5.47051 21.9363 5.50742 21.9681 5.54465C22.9594 6.70344 23.4958 8.18085 23.4721 9.70485C23.4721 15.9264 19.6622 17.3104 16.014 17.6875C15.9928 17.6896 15.9834 17.7131 15.9976 17.7276C16.003 17.7332 16.0086 17.7387 16.014 17.7443C16.3821 18.1244 16.6676 18.5756 16.8525 19.0699C17.0458 19.5867 17.1244 20.1385 17.0832 20.6881V26" stroke="#F7F7F7" stroke-width="2" stroke-linecap="round" stroke-linejoin="round"/>
<path d="M1 20.4445C1.55306 20.5171 2.08108 20.706 2.54411 20.9965C3.00713 21.2872 3.393 21.672 3.67248 22.122C3.90995 22.5225 4.23012 22.8756 4.6146 23.1607C4.99908 23.4458 5.44033 23.6577 5.91301 23.7838C6.38567 23.91 6.88046 23.9481 7.36899 23.8958C7.85752 23.8438 8.33017 23.7024 8.75983 23.4799" stroke="#F7F7F7" stroke-width="2" stroke-linecap="round" stroke-linejoin="round"/>
</svg>
