<svg width="25" height="27" viewBox="0 0 25 27" fill="none" xmlns="http://www.w3.org/2000/svg">
<path d="M8.92822 26V22.4454L8.97866 19.9193C9.03926 19.1335 9.36953 18.3928 9.91289 17.8194C9.92085 17.811 9.92885 17.8026 9.93691 17.7943C9.95788 17.7726 9.94407 17.7376 9.91289 17.734C6.28198 17.3139 2.49898 15.8926 2.49898 9.70485C2.47531 8.18085 3.01166 6.70344 4.00297 5.54465C4.03765 5.50413 4.07288 5.46397 4.10867 5.42424C4.15525 5.3725 4.17048 5.30239 4.14915 5.23797C4.14785 5.23407 4.14656 5.23015 4.14527 5.22624C4.12107 5.15264 4.09836 5.0787 4.07715 5.00446C3.71274 3.72881 3.7911 2.36615 4.30396 1.13636C4.30773 1.12728 4.31155 1.11821 4.31539 1.10914C4.33454 1.06388 4.37473 1.02928 4.42638 1.02074C4.74835 0.967514 6.04949 0.896306 8.54041 2.49092C8.61794 2.54054 8.69661 2.59179 8.77645 2.64469C8.8341 2.68289 8.90741 2.6946 8.97558 2.67661L8.98202 2.6749C9.11573 2.63967 9.24981 2.60624 9.38418 2.57458C11.752 2.01703 14.2192 2.01703 16.5869 2.57458C16.7144 2.60458 16.8415 2.63621 16.9684 2.66943L16.9766 2.67161C17.0568 2.69267 17.1429 2.67892 17.2108 2.63407C17.2851 2.58492 17.3584 2.53721 17.4307 2.49092C19.9158 0.899667 21.2098 0.967223 21.5332 1.0204C21.5858 1.02906 21.6268 1.06428 21.6466 1.11036C21.6492 1.11629 21.6516 1.12221 21.6541 1.12814C22.1756 2.35849 22.2585 3.7252 21.8938 5.00446C21.8721 5.08071 21.8487 5.15667 21.8239 5.23226C21.8014 5.30025 21.8176 5.37419 21.8666 5.42882L21.8712 5.43396C21.904 5.47051 21.9364 5.50742 21.9681 5.54465C22.9595 6.70344 23.4958 8.18085 23.4722 9.70485C23.4722 15.9264 19.6623 17.3104 16.014 17.6875C15.9929 17.6896 15.9835 17.7131 15.9977 17.7276C16.0031 17.7332 16.0086 17.7387 16.014 17.7443C16.3821 18.1244 16.6677 18.5756 16.8526 19.0699C17.0458 19.5867 17.1245 20.1385 17.0833 20.6881V26" stroke="#323232" stroke-width="2" stroke-linecap="round" stroke-linejoin="round"/>
<path d="M1 20.4445C1.55306 20.5171 2.08108 20.706 2.54411 20.9965C3.00713 21.2872 3.393 21.672 3.67248 22.122C3.90995 22.5225 4.23012 22.8756 4.6146 23.1607C4.99908 23.4458 5.44033 23.6577 5.91301 23.7838C6.38567 23.91 6.88046 23.9481 7.36899 23.8958C7.85752 23.8438 8.33017 23.7024 8.75983 23.4799" stroke="#323232" stroke-width="2" stroke-linecap="round" stroke-linejoin="round"/>
</svg>
