<svg width="24" height="25" viewBox="0 0 24 25" fill="none" xmlns="http://www.w3.org/2000/svg">
<path fill-rule="evenodd" clip-rule="evenodd" d="M23.3055 25H18.7916V16.2512C18.7916 13.8512 17.8358 12.5122 16.1217 12.5122C14.2563 12.5122 13.1493 13.9075 13.1493 16.2512V25H8.63539V8.75H13.1493V10.5774C13.1493 10.5774 14.5655 7.82471 17.7568 7.82471C20.9493 7.82471 23.3055 9.98263 23.3055 14.4476V25ZM3.49181 6.15112C1.96951 6.15112 0.736084 4.7737 0.736084 3.07495C0.736084 1.37745 1.96951 0 3.49181 0C5.013 0 6.24641 1.37745 6.24641 3.07495C6.24754 4.7737 5.013 6.15112 3.49181 6.15112ZM0.736084 25H6.37845V8.75H0.736084V25Z" fill="#F7F7F7"/>
</svg>
