<svg width="25" height="25" viewBox="0 0 25 25" fill="none" xmlns="http://www.w3.org/2000/svg">
<path fill-rule="evenodd" clip-rule="evenodd" d="M12.4999 19.3182C16.2655 19.3182 19.3181 16.2656 19.3181 12.5C19.3181 8.73443 16.2655 5.68182 12.4999 5.68182C8.73437 5.68182 5.68176 8.73443 5.68176 12.5C5.68176 16.2656 8.73437 19.3182 12.4999 19.3182ZM12.4999 17.0455C15.0103 17.0455 17.0454 15.0103 17.0454 12.5C17.0454 9.98962 15.0103 7.95455 12.4999 7.95455C9.98956 7.95455 7.95449 9.98962 7.95449 12.5C7.95449 15.0103 9.98956 17.0455 12.4999 17.0455Z" fill="#393E46"/>
<path d="M19.3182 4.54544C18.6906 4.54544 18.1818 5.05421 18.1818 5.6818C18.1818 6.3094 18.6906 6.81817 19.3182 6.81817C19.9458 6.81817 20.4546 6.3094 20.4546 5.6818C20.4546 5.05421 19.9458 4.54544 19.3182 4.54544Z" fill="#393E46"/>
<path fill-rule="evenodd" clip-rule="evenodd" d="M0.743136 3.7228C0 5.18128 0 7.09056 0 10.9091V14.0909C0 17.9094 0 19.8188 0.743136 21.2772C1.39682 22.5601 2.43986 23.6032 3.7228 24.2568C5.18128 25 7.09056 25 10.9091 25H14.0909C17.9094 25 19.8188 25 21.2772 24.2568C22.5601 23.6032 23.6032 22.5601 24.2568 21.2772C25 19.8188 25 17.9094 25 14.0909V10.9091C25 7.09056 25 5.18128 24.2568 3.7228C23.6032 2.43986 22.5601 1.39682 21.2772 0.743136C19.8188 0 17.9094 0 14.0909 0H10.9091C7.09056 0 5.18128 0 3.7228 0.743136C2.43986 1.39682 1.39682 2.43986 0.743136 3.7228ZM14.0909 2.27273H10.9091C8.96232 2.27273 7.63892 2.2745 6.616 2.35807C5.61959 2.43948 5.11005 2.58703 4.75459 2.76815C3.89931 3.20394 3.20394 3.89931 2.76815 4.75459C2.58703 5.11005 2.43948 5.61959 2.35807 6.616C2.2745 7.63892 2.27273 8.96232 2.27273 10.9091V14.0909C2.27273 16.0377 2.2745 17.361 2.35807 18.384C2.43948 19.3805 2.58703 19.89 2.76815 20.2455C3.20394 21.1007 3.89931 21.796 4.75459 22.2318C5.11005 22.413 5.61959 22.5606 6.616 22.6419C7.63892 22.7255 8.96232 22.7273 10.9091 22.7273H14.0909C16.0377 22.7273 17.361 22.7255 18.384 22.6419C19.3805 22.5606 19.89 22.413 20.2455 22.2318C21.1007 21.796 21.796 21.1007 22.2318 20.2455C22.413 19.89 22.5606 19.3805 22.6419 18.384C22.7255 17.361 22.7273 16.0377 22.7273 14.0909V10.9091C22.7273 8.96232 22.7255 7.63892 22.6419 6.616C22.5606 5.61959 22.413 5.11005 22.2318 4.75459C21.796 3.89931 21.1007 3.20394 20.2455 2.76815C19.89 2.58703 19.3805 2.43948 18.384 2.35807C17.361 2.2745 16.0377 2.27273 14.0909 2.27273Z" fill="#393E46"/>
</svg>
