<svg width="103" height="27" viewBox="0 0 103 27" fill="none" xmlns="http://www.w3.org/2000/svg">
<path d="M3.816 26.532V21.564H10.116C11.652 21.564 12.996 21.264 14.148 20.664C15.3 20.04 16.188 19.14 16.812 17.964C17.436 16.788 17.748 15.396 17.748 13.788C17.748 12.18 17.424 10.8 16.776 9.648C16.152 8.496 15.264 7.608 14.112 6.984C12.984 6.36 11.652 6.048 10.116 6.048H3.636V1.116H10.188C12.108 1.116 13.872 1.428 15.48 2.052C17.112 2.652 18.528 3.528 19.728 4.68C20.952 5.808 21.888 7.152 22.536 8.712C23.208 10.248 23.544 11.952 23.544 13.824C23.544 15.672 23.208 17.376 22.536 18.936C21.888 20.496 20.964 21.84 19.764 22.968C18.564 24.096 17.148 24.972 15.516 25.596C13.908 26.22 12.156 26.532 10.26 26.532H3.816ZM0 26.532V1.116H5.652V26.532H0Z" fill="#F7F7F7"/>
<path d="M33.9446 26.892C32.3366 26.892 30.8966 26.496 29.6246 25.704C28.3766 24.912 27.3806 23.832 26.6366 22.464C25.9166 21.096 25.5566 19.536 25.5566 17.784C25.5566 16.032 25.9166 14.472 26.6366 13.104C27.3806 11.736 28.3766 10.656 29.6246 9.864C30.8966 9.072 32.3366 8.676 33.9446 8.676C35.1206 8.676 36.1766 8.904 37.1126 9.36C38.0726 9.816 38.8526 10.452 39.4526 11.268C40.0526 12.06 40.3886 12.972 40.4606 14.004V21.564C40.3886 22.596 40.0526 23.52 39.4526 24.336C38.8766 25.128 38.1086 25.752 37.1486 26.208C36.1886 26.664 35.1206 26.892 33.9446 26.892ZM35.0606 21.924C36.2366 21.924 37.1846 21.54 37.9046 20.772C38.6246 19.98 38.9846 18.984 38.9846 17.784C38.9846 16.968 38.8166 16.248 38.4806 15.624C38.1686 15 37.7126 14.52 37.1126 14.184C36.5366 13.824 35.8646 13.644 35.0966 13.644C34.3286 13.644 33.6446 13.824 33.0446 14.184C32.4686 14.52 32.0006 15 31.6406 15.624C31.3046 16.248 31.1366 16.968 31.1366 17.784C31.1366 18.576 31.3046 19.284 31.6406 19.908C31.9766 20.532 32.4446 21.024 33.0446 21.384C33.6446 21.744 34.3166 21.924 35.0606 21.924ZM38.7686 26.532V21.816L39.5966 17.568L38.7686 13.32V9.036H44.1686V26.532H38.7686Z" fill="#F7F7F7"/>
<path d="M50.2788 26.532V8.28C50.2788 6.768 50.5908 5.424 51.2148 4.248C51.8628 3.048 52.7868 2.1 53.9868 1.404C55.1868 0.708 56.6028 0.36 58.2348 0.36C59.8668 0.36 61.2348 0.696 62.3388 1.368C63.4428 2.016 64.2588 2.88 64.7868 3.96C65.3388 5.016 65.6148 6.156 65.6148 7.38L61.3668 7.92C61.3668 7.032 61.1268 6.336 60.6468 5.832C60.1668 5.328 59.4828 5.076 58.5948 5.076C57.6828 5.076 56.9868 5.328 56.5068 5.832C56.0268 6.312 55.7868 6.996 55.7868 7.884V26.532H50.2788ZM46.4268 13.716V9.036H71.9148V13.716H46.4268ZM61.3668 26.532V7.56C61.3668 6.12 61.6788 4.836 62.3028 3.708C62.9508 2.556 63.8508 1.656 65.0028 1.008C66.1548 0.336 67.5228 0 69.1068 0C70.3068 0 71.3508 0.204 72.2388 0.612001C73.1508 0.996 73.9428 1.536 74.6148 2.232L71.1588 5.688C70.9188 5.448 70.6428 5.268 70.3308 5.148C70.0428 5.004 69.6948 4.932 69.2868 4.932C68.5428 4.932 67.9548 5.148 67.5228 5.58C67.0908 6.012 66.8748 6.6 66.8748 7.344V26.532H61.3668Z" fill="#F7F7F7"/>
<path d="M81.3704 26.892C79.7624 26.892 78.3224 26.496 77.0504 25.704C75.8024 24.912 74.8064 23.832 74.0624 22.464C73.3424 21.096 72.9824 19.536 72.9824 17.784C72.9824 16.032 73.3424 14.472 74.0624 13.104C74.8064 11.736 75.8024 10.656 77.0504 9.864C78.3224 9.072 79.7624 8.676 81.3704 8.676C82.5464 8.676 83.6024 8.904 84.5384 9.36C85.4984 9.816 86.2784 10.452 86.8784 11.268C87.4784 12.06 87.8144 12.972 87.8864 14.004V21.564C87.8144 22.596 87.4784 23.52 86.8784 24.336C86.3024 25.128 85.5344 25.752 84.5744 26.208C83.6144 26.664 82.5464 26.892 81.3704 26.892ZM82.4864 21.924C83.6624 21.924 84.6104 21.54 85.3304 20.772C86.0504 19.98 86.4104 18.984 86.4104 17.784C86.4104 16.968 86.2424 16.248 85.9064 15.624C85.5944 15 85.1384 14.52 84.5384 14.184C83.9624 13.824 83.2904 13.644 82.5224 13.644C81.7544 13.644 81.0704 13.824 80.4704 14.184C79.8944 14.52 79.4264 15 79.0664 15.624C78.7304 16.248 78.5624 16.968 78.5624 17.784C78.5624 18.576 78.7304 19.284 79.0664 19.908C79.4024 20.532 79.8704 21.024 80.4704 21.384C81.0704 21.744 81.7424 21.924 82.4864 21.924ZM86.1944 26.532V21.816L87.0224 17.568L86.1944 13.32V9.036H91.5944V26.532H86.1944Z" fill="#F7F7F7"/>
<path d="M98.9286 26.928C97.9926 26.928 97.2126 26.604 96.5886 25.956C95.9646 25.308 95.6526 24.528 95.6526 23.616C95.6526 22.656 95.9646 21.864 96.5886 21.24C97.2126 20.592 97.9926 20.268 98.9286 20.268C99.8886 20.268 100.669 20.592 101.269 21.24C101.893 21.864 102.205 22.656 102.205 23.616C102.205 24.528 101.893 25.308 101.269 25.956C100.669 26.604 99.8886 26.928 98.9286 26.928Z" fill="#F2E7D5"/>
</svg>
