<svg width="103" height="28" viewBox="0 0 103 28" fill="none" xmlns="http://www.w3.org/2000/svg">
<path d="M4.264 27V22.032H10.564C12.1 22.032 13.444 21.732 14.596 21.132C15.748 20.508 16.636 19.608 17.26 18.432C17.884 17.256 18.196 15.864 18.196 14.256C18.196 12.648 17.872 11.268 17.224 10.116C16.6 8.96399 15.712 8.07599 14.56 7.45199C13.432 6.82799 12.1 6.51599 10.564 6.51599H4.084V1.58399H10.636C12.556 1.58399 14.32 1.89599 15.928 2.51999C17.56 3.11999 18.976 3.99599 20.176 5.14799C21.4 6.27599 22.336 7.61999 22.984 9.17999C23.656 10.716 23.992 12.42 23.992 14.292C23.992 16.14 23.656 17.844 22.984 19.404C22.336 20.964 21.412 22.308 20.212 23.436C19.012 24.564 17.596 25.44 15.964 26.064C14.356 26.688 12.604 27 10.708 27H4.264ZM0.447998 27V1.58399H6.1V27H0.447998Z" fill="#F7F7F7"/>
<path d="M34.3926 27.36C32.7846 27.36 31.3446 26.964 30.0726 26.172C28.8246 25.38 27.8286 24.3 27.0846 22.932C26.3646 21.564 26.0046 20.004 26.0046 18.252C26.0046 16.5 26.3646 14.94 27.0846 13.572C27.8286 12.204 28.8246 11.124 30.0726 10.332C31.3446 9.53999 32.7846 9.14399 34.3926 9.14399C35.5686 9.14399 36.6246 9.37199 37.5606 9.82799C38.5206 10.284 39.3006 10.92 39.9006 11.736C40.5006 12.528 40.8366 13.44 40.9086 14.472V22.032C40.8366 23.064 40.5006 23.988 39.9006 24.804C39.3246 25.596 38.5566 26.22 37.5966 26.676C36.6366 27.132 35.5686 27.36 34.3926 27.36ZM35.5086 22.392C36.6846 22.392 37.6326 22.008 38.3526 21.24C39.0726 20.448 39.4326 19.452 39.4326 18.252C39.4326 17.436 39.2646 16.716 38.9286 16.092C38.6166 15.468 38.1606 14.988 37.5606 14.652C36.9846 14.292 36.3126 14.112 35.5446 14.112C34.7766 14.112 34.0926 14.292 33.4926 14.652C32.9166 14.988 32.4486 15.468 32.0886 16.092C31.7526 16.716 31.5846 17.436 31.5846 18.252C31.5846 19.044 31.7526 19.752 32.0886 20.376C32.4246 21 32.8926 21.492 33.4926 21.852C34.0926 22.212 34.7646 22.392 35.5086 22.392ZM39.2166 27V22.284L40.0446 18.036L39.2166 13.788V9.50399H44.6166V27H39.2166Z" fill="#F7F7F7"/>
<path d="M50.7268 27V8.74799C50.7268 7.23599 51.0388 5.89199 51.6628 4.71599C52.3108 3.51599 53.2348 2.56799 54.4348 1.87199C55.6348 1.17599 57.0508 0.827987 58.6828 0.827987C60.3148 0.827987 61.6828 1.16399 62.7868 1.83599C63.8908 2.48399 64.7068 3.34799 65.2348 4.42799C65.7868 5.48399 66.0628 6.62399 66.0628 7.84799L61.8148 8.38799C61.8148 7.49999 61.5748 6.80399 61.0948 6.29999C60.6148 5.79599 59.9308 5.54399 59.0428 5.54399C58.1308 5.54399 57.4348 5.79599 56.9548 6.29999C56.4748 6.77999 56.2348 7.46399 56.2348 8.35199V27H50.7268ZM46.8748 14.184V9.50399H72.3628V14.184H46.8748ZM61.8148 27V8.02799C61.8148 6.58799 62.1268 5.30399 62.7508 4.17599C63.3988 3.02399 64.2988 2.12399 65.4508 1.47599C66.6028 0.803987 67.9708 0.467987 69.5548 0.467987C70.7548 0.467987 71.7988 0.671987 72.6868 1.07999C73.5988 1.46399 74.3908 2.00399 75.0628 2.69999L71.6068 6.15599C71.3668 5.91599 71.0908 5.73599 70.7788 5.61599C70.4908 5.47199 70.1428 5.39999 69.7348 5.39999C68.9908 5.39999 68.4028 5.61599 67.9708 6.04799C67.5388 6.47999 67.3228 7.06799 67.3228 7.81199V27H61.8148Z" fill="#F7F7F7"/>
<path d="M81.8184 27.36C80.2104 27.36 78.7704 26.964 77.4984 26.172C76.2504 25.38 75.2544 24.3 74.5104 22.932C73.7904 21.564 73.4304 20.004 73.4304 18.252C73.4304 16.5 73.7904 14.94 74.5104 13.572C75.2544 12.204 76.2504 11.124 77.4984 10.332C78.7704 9.53999 80.2104 9.14399 81.8184 9.14399C82.9944 9.14399 84.0504 9.37199 84.9864 9.82799C85.9464 10.284 86.7264 10.92 87.3264 11.736C87.9264 12.528 88.2624 13.44 88.3344 14.472V22.032C88.2624 23.064 87.9264 23.988 87.3264 24.804C86.7504 25.596 85.9824 26.22 85.0224 26.676C84.0624 27.132 82.9944 27.36 81.8184 27.36ZM82.9344 22.392C84.1104 22.392 85.0584 22.008 85.7784 21.24C86.4984 20.448 86.8584 19.452 86.8584 18.252C86.8584 17.436 86.6904 16.716 86.3544 16.092C86.0424 15.468 85.5864 14.988 84.9864 14.652C84.4104 14.292 83.7384 14.112 82.9704 14.112C82.2024 14.112 81.5184 14.292 80.9184 14.652C80.3424 14.988 79.8744 15.468 79.5144 16.092C79.1784 16.716 79.0104 17.436 79.0104 18.252C79.0104 19.044 79.1784 19.752 79.5144 20.376C79.8504 21 80.3184 21.492 80.9184 21.852C81.5184 22.212 82.1904 22.392 82.9344 22.392ZM86.6424 27V22.284L87.4704 18.036L86.6424 13.788V9.50399H92.0424V27H86.6424Z" fill="#F7F7F7"/>
<path d="M99.3766 27.396C98.4406 27.396 97.6606 27.072 97.0366 26.424C96.4126 25.776 96.1006 24.996 96.1006 24.084C96.1006 23.124 96.4126 22.332 97.0366 21.708C97.6606 21.06 98.4406 20.736 99.3766 20.736C100.337 20.736 101.117 21.06 101.717 21.708C102.341 22.332 102.653 23.124 102.653 24.084C102.653 24.996 102.341 25.776 101.717 26.424C101.117 27.072 100.337 27.396 99.3766 27.396Z" fill="#6D9886"/>
</svg>
